<svg width="124" height="85" xmlns="http://www.w3.org/2000/svg">
 <!-- Created with Method Draw - http://github.com/duopixel/Method-Draw/ -->

 <g>
  <title>background</title>
  <rect x="-1" y="-1" width="126" height="87" id="canvas_background" fill="none"/>
  <g id="canvasGrid" display="none">
   <rect id="svg_3" width="100%" height="100%" x="0" y="0" stroke-width="0" fill="url(#gridpattern)"/>
  </g>
 </g>
 <g>
  <title>Layer 1</title>
  <path d="m92.338387,57.918823c0,-7.151928 5.958267,-12.944992 13.314156,-12.944992c7.355881,0 13.314148,5.793064 13.314148,12.944992c0,7.151932 -5.958267,12.944992 -13.314148,12.944992c-7.355888,0 -13.314156,-5.79306 -13.314156,-12.944992z"/>
  <ellipse fill="#8e3c77" stroke="#000" stroke-width="0" cx="105.652541" cy="57.918824" id="svg_4" rx="13.314151" ry="12.944992" transform="rotate(-1.10881, 105.653, 57.9188)"/>
  <path d="m63.579182,54.347397c0,-9.104698 7.832363,-16.4795 17.501957,-16.4795c9.669594,0 17.501961,7.374802 17.501961,16.4795c0,9.104694 -7.832367,16.4795 -17.501961,16.4795c-9.669594,0 -17.501957,-7.374805 -17.501957,-16.4795z"/>
  <path d="m63.579182,54.347397c0,-9.104698 7.832363,-16.4795 17.501957,-16.4795c9.669594,0 17.501961,7.374802 17.501961,16.4795c0,9.104694 -7.832367,16.4795 -17.501961,16.4795c-9.669594,0 -17.501957,-7.374805 -17.501957,-16.4795z"/>
  <path d="m63.579182,54.347397c0,-9.104698 7.832363,-16.4795 17.501957,-16.4795c9.669594,0 17.501961,7.374802 17.501961,16.4795c0,9.104694 -7.832367,16.4795 -17.501961,16.4795c-9.669594,0 -17.501957,-7.374805 -17.501957,-16.4795z"/>
  <ellipse fill="#563672" stroke="#000" stroke-width="0" cx="81.081139" cy="54.347397" id="svg_2" rx="17.501958" ry="16.479501" transform="rotate(0.806814, 81.0811, 54.3474)"/>
  <path d="m0.577598,62.061714c0,-6.039524 4.892265,-10.931538 10.932099,-10.931538c6.039833,0 10.932098,4.892014 10.932098,10.931538c0,6.03952 -4.892265,10.931534 -10.932098,10.931534c-6.039834,0 -10.932099,-4.892014 -10.932099,-10.931534z"/>
  <path d="m0.577598,62.061714c0,-6.039524 4.892265,-10.931538 10.932099,-10.931538c6.039833,0 10.932098,4.892014 10.932098,10.931538c0,6.03952 -4.892265,10.931534 -10.932098,10.931534c-6.039834,0 -10.932099,-4.892014 -10.932099,-10.931534z"/>
  <path d="m0.577598,62.061714c0,-6.039524 4.892265,-10.931538 10.932099,-10.931538c6.039833,0 10.932098,4.892014 10.932098,10.931538c0,6.03952 -4.892265,10.931534 -10.932098,10.931534c-6.039834,0 -10.932099,-4.892014 -10.932099,-10.931534z"/>
  <path d="m0.577598,62.061714c0,-6.039524 4.892265,-10.931538 10.932099,-10.931538c6.039833,0 10.932098,4.892014 10.932098,10.931538c0,6.03952 -4.892265,10.931534 -10.932098,10.931534c-6.039834,0 -10.932099,-4.892014 -10.932099,-10.931534z"/>
  <ellipse fill="#3721e0" stroke="#000" stroke-width="0" cx="11.509697" cy="62.061712" id="svg_12" rx="10.932099" ry="10.931536" transform="rotate(-1.10881, 11.5097, 62.0617)"/>
  <ellipse fill="#f90c0c" stroke="#000" stroke-width="0" cx="46" cy="42.999998" id="svg_1" rx="31" ry="29.500002"/>
  <text fill="#ffffff" stroke="#000" stroke-width="0" stroke-opacity="null" x="114.673815" y="144.022815" id="svg_7" font-size="24" font-family="Oswald, sans-serif" text-anchor="start" xml:space="preserve" transform="rotate(0.490472, 43.3232, 47.3001) matrix(3.13684, 0, 0, 2.02271, -352.216, -227.046)" font-weight="bold" font-style="italic">K</text>
  <text transform="rotate(0.501966, 88.9999, 55)" font-style="italic" xml:space="preserve" text-anchor="start" font-family="Oswald, sans-serif" font-size="24" id="svg_14" y="63.571388" x="64.785717" fill-opacity="null" stroke-opacity="null" stroke-width="0" stroke="null" fill="#ffffff">ban</text>
  <text transform="rotate(5.4851, 8.1442, 60.3119) matrix(0.747311, 0, 0, 0.811947, 3.18467, 13.5209)" xml:space="preserve" text-anchor="start" font-family="Oswald, sans-serif" font-size="24" id="svg_16" y="65.866755" x="1.601817" stroke-opacity="null" stroke-width="0" stroke="#000" fill="#ffffff">r</text>
 </g>
</svg>