<?xml version="1.0" encoding="iso-8859-1"?>
<!-- Generator: Adobe Illustrator 19.0.0, SVG Export Plug-In . SVG Version: 6.00 Build 0)  -->
<svg version="1.1" id="Capa_1" xmlns="http://www.w3.org/2000/svg" xmlns:xlink="http://www.w3.org/1999/xlink" x="0px" y="0px"
	 viewBox="0 0 512 512" style="enable-background:new 0 0 512 512;" xml:space="preserve">
<path style="fill:#095C92;" d="M271,376v61c0,8.399-6.599,15-15,15s-15-6.601-15-15v-61c0-8.401,6.599-15,15-15S271,367.599,271,376
	z"/>
<path style="fill:#08469C;" d="M271,376v61c0,8.399-6.599,15-15,15v-91C264.401,361,271,367.599,271,376z"/>
<path style="fill:#E1E4FB;" d="M467,60H45c-8.401,0-15,6.599-15,15v271c0,24.899,20.099,45,45,45h362c24.901,0,45-20.101,45-45V75
	C482,66.599,475.401,60,467,60z"/>
<path style="fill:#C5C9F7;" d="M482,75v271c0,24.899-20.099,45-45,45H256V60h211C475.401,60,482,66.599,482,75z"/>
<path style="fill:#0D70B2;" d="M256,422c-24.901,0-45,20.099-45,45c0,24.899,20.099,45,45,45s45-20.101,45-45
	C301,442.099,280.901,422,256,422z M256,482c-8.401,0-15-6.601-15-15c0-8.401,6.599-15,15-15s15,6.599,15,15
	C271,475.399,264.401,482,256,482z"/>
<path style="fill:#095C92;" d="M301,467c0,24.899-20.099,45-45,45v-30c8.401,0,15-6.601,15-15c0-8.401-6.599-15-15-15v-30
	C280.901,422,301,442.099,301,467z"/>
<path style="fill:#AA3DC8;" d="M407,331h-60c-8.291,0-15-6.709-15-15V166c0-3.984,1.582-7.793,4.395-10.605l30-30
	c5.859-5.859,15.352-5.859,21.211,0l30,30C420.418,158.207,422,162.016,422,166v150C422,324.291,415.291,331,407,331z"/>
<g>
	<path style="fill:#B758CE;" d="M165,331h-60c-8.291,0-15-6.709-15-15v-60c0-3.984,1.582-7.793,4.395-10.605l30-30
		c5.859-5.859,15.352-5.859,21.211,0l30,30C178.418,248.207,180,252.016,180,256v60C180,324.291,173.291,331,165,331z"/>
	<path style="fill:#B758CE;" d="M296.499,185.499l-30-30C263.8,152.5,259.9,151,256,151s-7.8,1.5-10.499,4.499l-30,30
		C212.5,188.2,211,192.1,211,196v120c0,8.399,6.599,15,15,15h60c8.401,0,15-6.601,15-15V196C301,192.1,299.5,188.2,296.499,185.499z
		"/>
</g>
<path style="fill:#AA3DC8;" d="M296.499,185.499C299.5,188.2,301,192.1,301,196v120c0,8.399-6.599,15-15,15h-30V151
	c3.9,0,7.8,1.5,10.499,4.499L296.499,185.499z"/>
<path style="fill:#0D70B2;" d="M467,0H45C20.099,0,0,20.099,0,45v30c0,8.399,6.599,15,15,15h482c8.401,0,15-6.601,15-15V45
	C512,20.099,491.901,0,467,0z"/>
<path style="fill:#095C92;" d="M512,45v30c0,8.399-6.599,15-15,15H256V0h211C491.901,0,512,20.099,512,45z"/>

</svg>
